<svg  viewBox="0 0 40 24" fill="none" xmlns="http://www.w3.org/2000/svg">
<path d="M8.67969 16L7.19531 10.5455H8.72585L9.57102 14.2102H9.62074L10.5014 10.5455H12.0036L12.8984 14.1889H12.9446L13.7756 10.5455H15.3026L13.8217 16H12.2202L11.2827 12.5696H11.2152L10.2777 16H8.67969ZM17.1855 16L15.7012 10.5455H17.2317L18.0769 14.2102H18.1266L19.0073 10.5455H20.5094L21.4043 14.1889H21.4505L22.2814 10.5455H23.8084L22.3276 16H20.726L19.7885 12.5696H19.7211L18.7836 16H17.1855ZM25.6914 16L24.207 10.5455H25.7376L26.5827 14.2102H26.6325L27.5131 10.5455H29.0153L29.9102 14.1889H29.9563L30.7873 10.5455H32.3143L30.8335 16H29.2319L28.2944 12.5696H28.2269L27.2894 16H25.6914Z" fill="#1D3FF1"/>
</svg>
